# xmcd
#
# Track frame offsets:
#	182
#	18397
#	35777
#	62250
#	81325
#	102950
#	122472
#	150222
#	172366
#	190190
#	209992
#	232525
#
# Disc length: 3408 seconds
#
# Revision: 1
# Processed by: cddbd v1.4PL0 Copyright (c) Steve Scherf et al.
# Submitted via: audiograbber 1.81.01
#
DISCID=970d4e0c
DTITLE=Jan Kolar - Hoboj - Salmaj - Romance
DYEAR=2000
DGENRE=Instrumental
TTITLE0=To France
TTITLE1=Wooman
TTITLE2=Proroctvi
TTITLE3=I Will Allways Love You
TTITLE4=Brothers In Arms
TTITLE5=The Battle
TTITLE6=They Dance Alone
TTITLE7=Scarebourough Fair
TTITLE8=Wuthering Heights
TTITLE9=Send In The Clowns
TTITLE10=In The Air Tonight
TTITLE11=Once Upon A Time In The West
EXTD=Master Music Ltd.\nPrague
EXTT0=
EXTT1=
EXTT2=
EXTT3=
EXTT4=
EXTT5=
EXTT6=
EXTT7=
EXTT8=
EXTT9=
EXTT10=
EXTT11=
PLAYORDER=
